<svg width="192" height="64" viewBox="0 0 192 64" fill="none" xmlns="http://www.w3.org/2000/svg">
<rect width="192" height="64" fill="white"/>
<path fill-rule="evenodd" clip-rule="evenodd" d="M74.7655 8H108.87C109.982 8 110.307 8.15746 111.029 8.91092C111.38 9.27601 113.263 11.2394 115.111 13.1659C116.495 14.6086 117.859 16.0306 118.544 16.7453C118.832 17.0461 119 17.274 119 17.9127V54.1182C119 55.7098 117.762 57 116.236 57H74.7655C73.2374 57 72 55.7098 72 54.1182V10.8816C72 9.29039 73.2374 8 74.7655 8ZM92.6385 47.2448C92.7862 47.0148 93.1272 46.668 93.3508 46.5113C94.4236 45.7558 96.095 45.7721 97.5241 45.9046C96.9073 50.2993 93.2851 53.6781 88.8995 53.6781C84.0768 53.6781 80.1716 49.6026 80.1716 44.5792C80.1716 39.5549 84.0768 35.4808 88.8995 35.4808C93.2851 35.4808 96.9073 38.8599 97.5241 43.2543C96.095 43.3857 94.4236 43.4004 93.3508 42.6482C93.1272 42.4908 92.7862 42.1452 92.6385 41.9146C91.8352 40.6712 90.4484 39.8703 88.8995 39.8703C86.405 39.8703 84.382 41.9775 84.382 44.5792C84.382 47.182 86.405 49.2891 88.8995 49.2891C90.4484 49.2891 91.8352 48.4884 92.6385 47.2448ZM107.239 35.4808C102.42 35.4808 98.5113 39.5549 98.5113 44.5792C98.5113 49.6026 102.42 53.6781 107.239 53.6781C112.062 53.6781 115.966 49.6026 115.966 44.5792C115.966 39.5549 112.062 35.4808 107.239 35.4808ZM107.24 49.2904C104.746 49.2904 102.722 47.1833 102.722 44.5805C102.722 41.9788 104.746 39.8716 107.24 39.8716C109.735 39.8716 111.758 41.9788 111.758 44.5805C111.758 47.1833 109.735 49.2904 107.24 49.2904ZM79.0618 50.5939C79.0618 51.7534 78.1593 52.6939 77.047 52.6939C75.9352 52.6939 75.0333 51.7534 75.0333 50.5939C75.0333 49.4341 75.9352 48.4939 77.047 48.4939C78.1593 48.4939 79.0618 49.4341 79.0618 50.5939Z" fill="#111111"/>
</svg>
