<svg xmlns="http://www.w3.org/2000/svg" viewBox="0 0 323.1 41.6"><path fill="#fff" d="M57.9 20.8c0 6.3-5.3 11.3-11.9 11.3s-11.9-5-11.9-11.3S39.4 9.4 46 9.4s11.9 5.1 11.9 11.4m-7.6-.1c0-2.4-1.9-4.4-4.4-4.4-2.4 0-4.4 2-4.4 4.4s1.9 4.4 4.4 4.4 4.4-2 4.4-4.4m39.5-4.5c0 9-6.4 15.2-15.3 15.2h-13c-.6 0-1.1-.5-1.1-1.1V2.2c0-.6.5-1 1.1-1h13c9-.1 15.3 6 15.3 15m-8.2 0c0-4.2-3-7.9-7.3-7.9h-6.1v16h6.1c4.4 0 7.3-3.9 7.3-8.1m19.8-6.8c2.6 0 4.6 1 5.5 2.3v-.6c0-.6.5-1 1-1h5.4c.6 0 1 .4 1 1v19.4c0 .6-.4 1-1 1h-5.4c-.6 0-1-.4-1-1v-.8c-.9 1.3-3 2.3-5.6 2.3-5.5 0-10.8-4.4-10.8-11.4s5.4-11.2 10.9-11.2m1.1 15.7c2.4 0 4.4-2 4.4-4.4s-1.9-4.4-4.4-4.4c-2.4 0-4.4 2-4.4 4.4s2 4.4 4.4 4.4M126 9.4c2.7 0 4.7 1 5.6 2.2V2.2c0-.6.5-1 1-1h5.5c.6 0 1 .4 1 1v28.2c0 .6-.4 1-1 1h-5.4c-.6 0-1-.4-1-1v-.7c-1.1 1.3-3 2.3-5.6 2.3-5.5 0-10.8-4.4-10.8-11.4S120.6 9.4 126 9.4m1.3 15.7c2.4 0 4.4-2 4.4-4.4s-1.9-4.4-4.4-4.4-4.4 2-4.4 4.4 2 4.4 4.4 4.4m23.5-15.7c2.7 0 4.7 1 5.6 2.2V2.2c0-.6.5-1 1-1h5.5c.6 0 1 .4 1 1v28.2c0 .6-.4 1-1 1h-5.4c-.6 0-1-.4-1-1v-.7c-1.1 1.3-3 2.3-5.6 2.3-5.5 0-10.8-4.4-10.8-11.4s5.3-11.2 10.7-11.2m1.3 15.7c2.4 0 4.4-2 4.4-4.4s-1.9-4.4-4.4-4.4-4.4 2-4.4 4.4 2 4.4 4.4 4.4m30.1 9.4c-1.4 4.5-4.5 7.1-9.5 7.1-2.7 0-5.3-.9-7-2.4-.3-.3-.4-.6-.4-.9s.1-.6.3-.9l2-3.1c.3-.4.8-.5.9-.5.5 0 .7.1 1.1.4.7.4 1.5 1 2.5 1 .8 0 2-.3 2.4-1.6l.7-2.2h-3.3c-.7 0-1.1-.5-1.3-1l-5.5-18.7c-.1-.5-.2-.7-.2-.9 0-.4.3-.8.9-.8h6.5c.6 0 .9.5 1 1l3.6 13.4h.3l2.9-13.4c.1-.5.5-1 1-1h6.6c.6 0 .9.3.9.8 0 .2 0 .4-.2.9l-6.2 22.8zm-156-7.3c-2.6 3.6-7 4.8-10.8 4.8C6.6 32 0 25.4 0 16.2 0 7.4 7.1.4 16.3.4c6.8 0 12.3 2.9 14.8 8.4.3.6.5 1.7-1.3 2l-4.8.9c-1.1.2-1.7-.5-2-.8-1.4-1.9-3.7-3.3-6.5-3.3-4.8 0-8.3 3.7-8.3 8.6 0 5.4 3.9 8.6 8.1 8.6 2.8 0 5.2-1.1 6.7-3.1h-4.3c-.6 0-1.1-.5-1.1-1.1v-3.9c0-.6.5-1.1 1.1-1.1h13c.6 0 1.1.5 1.1 1.1v13.6c0 .6-.5 1.1-1.1 1.1h-4.5c-.6 0-1.1-.5-1.1-1.1v-3.1h.1zM189.5 7.7c-.2-.2-.4-.5-.5-.8s-.2-.6-.2-.9.1-.6.2-.9.3-.5.5-.8c.2-.2.5-.4.8-.5s.6-.2.9-.2.6.1.9.2.5.3.8.5c.2.2.4.5.5.8s.2.6.2.9-.1.6-.2.9-.3.5-.5.8c-.2.2-.5.4-.8.5s-.6.2-.9.2-.6-.1-.9-.2c-.4-.1-.6-.3-.8-.5zm1.7.3c.5 0 1-.2 1.4-.6s.6-.8.6-1.4-.2-1-.6-1.4-.8-.6-1.4-.6c-.5 0-1 .2-1.4.6s-.6.8-.6 1.4.2 1 .6 1.4.8.6 1.4.6zm-.5-.6h-.6V4.6h1.1c.3 0 .6.1.8.3.2.2.3.4.3.7 0 .2 0 .3-.1.5-.1.1-.2.3-.4.3l.6.9v.1h-.7s-.1 0-.1-.1l-.5-.8h-.4v.9c.1 0 0 0 0 0zm.9-1.8c0-.1 0-.2-.1-.3-.1-.1-.2-.1-.3-.1h-.5V6h.5c.1 0 .2 0 .3-.1.1-.1.1-.2.1-.3z"/><linearGradient id="a" x1="199.7" x2="323.113" y1="133.05" y2="133.05" gradientTransform="matrix(1 0 0 -1 0 153.4)" gradientUnits="userSpaceOnUse"><stop offset=".002" stop-color="#3374ba"/><stop offset="1" stop-color="#934c9e"/></linearGradient><path fill="url(#a)" d="M293.6 9.9c-3 0-5.6 1.1-7.6 3.2s-3 4.7-3 7.8c0 3.1 1 5.7 3 7.7 2 2.1 4.6 3.1 7.7 3.1 2 0 3.7-.4 5.2-1.1s2.8-1.8 3.6-3.1c.2-.4.2-.7-.2-.9l-1.3-.8c-.4-.3-.7-.2-1.1.2-1.8 2-3.9 3-6.3 3-2.1 0-3.9-.7-5.3-2.1s-2.2-3.1-2.4-5.2H303c.5 0 .7-.3.7-.8v-.6c0-3-1-5.5-3-7.5-1.7-2-4.1-2.9-7.1-2.9zm-7.3 9.4c.2-2 1-3.6 2.4-4.9 1.3-1.3 3-1.9 5-1.9s3.6.6 5 1.8c1.3 1.2 2.1 2.9 2.3 5h-14.7zM253 10.4h-1.6c-.2 0-.4.1-.5.2s-.2.3-.2.5v19.1c0 .2.1.4.2.5s.3.2.5.2h1.6c.2 0 .4-.1.5-.2s.2-.3.2-.5V11.1c0-.2-.1-.4-.2-.5s-.3-.2-.5-.2zm-32.9 0h-1.6c-.2 0-.4.1-.5.2s-.2.3-.2.5v3.2c-.7-1.3-1.7-2.4-3.1-3.2-1.4-.8-3-1.2-4.7-1.2-2.9 0-5.4 1-7.3 3-2 2-3 4.6-3 7.7s1 5.7 3 7.7 4.5 3 7.4 3c1.7 0 3.3-.4 4.7-1.2 1.4-.8 2.4-1.9 3.1-3.2V31c0 2.1-.6 3.8-1.9 5.1-1.3 1.3-3.1 1.9-5.6 1.9-2 0-3.6-.4-4.8-1.3s-2-2-2.3-3.3c-.1-.4-.4-.6-.9-.5l-1.6.4c-.4.1-.6.3-.5.8.5 2 1.6 3.5 3.3 4.8 1.7 1.2 3.9 1.8 6.6 1.8 3.3 0 6-.9 7.8-2.7 1.9-1.8 2.8-4.1 2.8-6.9v-20c0-.2-.1-.4-.2-.5s-.3-.2-.5-.2zm-4.4 16c-1.4 1.5-3.2 2.3-5.4 2.3s-4-.8-5.4-2.3-2.1-3.4-2.1-5.7c0-2.2.7-4.1 2.1-5.7 1.4-1.5 3.2-2.3 5.4-2.3s4 .8 5.4 2.3 2.1 3.4 2.1 5.7c0 2.3-.7 4.2-2.1 5.7zm28.8-16h-1.6c-.2 0-.4.1-.5.2s-.2.3-.2.5v11c0 2-.6 3.6-1.8 4.9-1.2 1.3-2.8 1.9-4.9 1.9s-3.7-.6-4.8-1.8c-1.1-1.2-1.7-2.9-1.7-5v-11c0-.2-.1-.4-.2-.5s-.3-.2-.5-.2h-1.6c-.2 0-.3.1-.5.2-.1.1-.2.3-.2.5v11.6c0 2.7.8 4.9 2.4 6.5s3.7 2.4 6.4 2.4c1.7 0 3.3-.4 4.6-1.1 1.3-.8 2.3-1.8 2.9-3v2.9c0 .2.1.4.2.5s.3.2.5.2h1.6c.2 0 .4-.1.5-.2s.2-.3.2-.5V11.3c0-.2-.1-.4-.2-.5-.2-.3-.4-.4-.6-.4zM278.3 0h-1.6c-.2 0-.4.1-.5.2s-.2.3-.2.5v13.6c-.7-1.3-1.7-2.4-3.1-3.2-1.4-.8-3-1.2-4.7-1.2-2.9 0-5.3 1-7.3 3.1s-3 4.7-3 7.8c0 3.1 1 5.7 3 7.8 2 2 4.5 3.1 7.4 3.1 1.7 0 3.3-.4 4.6-1.2 1.4-.8 2.4-1.9 3.1-3.2v3.2c0 .2.1.4.2.5s.3.2.5.2h1.6c.2 0 .4-.1.5-.2s.2-.3.2-.5V.7c0-.2-.1-.4-.2-.5-.2-.2-.3-.2-.5-.2zm-4.5 26.5c-1.4 1.5-3.2 2.3-5.4 2.3s-4-.8-5.4-2.3-2.1-3.4-2.1-5.7c0-2.3.7-4.2 2.1-5.8 1.4-1.6 3.2-2.3 5.4-2.3s4 .8 5.4 2.3c1.4 1.6 2.1 3.5 2.1 5.8.1 2.3-.7 4.2-2.1 5.7zM252.2.8c-.7 0-1.3.3-1.8.8s-.7 1.1-.7 1.8.2 1.3.7 1.8 1.1.8 1.8.8 1.3-.3 1.8-.8.7-1.1.7-1.8-.2-1.3-.7-1.8c-.5-.6-1.1-.8-1.8-.8zm69.5 20.7c-1-.9-2.6-1.6-4.7-2l-3.9-.8c-2.3-.5-3.5-1.5-3.5-3 0-.9.4-1.7 1.3-2.4.8-.6 2-1 3.4-1 2.1 0 4 .7 5.7 2 .4.4.9.4 1.3 0l.8-.8c.4-.4.4-.8 0-1.2-1.8-1.7-4.3-2.6-7.5-2.6-2.3 0-4.2.6-5.8 1.7-1.5 1.1-2.3 2.6-2.3 4.3 0 3 1.9 4.8 5.7 5.5l3.6.7c2.8.5 4.2 1.7 4.2 3.5 0 .9-.5 1.8-1.4 2.5s-2.2 1.1-3.8 1.1c-2.4 0-4.6-.9-6.4-2.6-.5-.4-.9-.5-1.2-.1l-.8.7c-.5.5-.5 1 .2 1.6 2.1 2 4.8 2.9 8.1 2.9 2.7 0 4.8-.6 6.2-1.9 1.5-1.3 2.2-2.7 2.2-4.4.1-1.5-.4-2.8-1.4-3.7z"/></svg>